<svg xmlns="http://www.w3.org/2000/svg" viewBox="0 0 139.13 172.83"><defs><style>.cls-1{isolation:isolate;}.cls-2{mix-blend-mode:multiply;}.cls-3{fill:#1b75bb;}</style></defs><g class="cls-1"><g id="Layer_2" data-name="Layer 2"><g id="Layer_1-2" data-name="Layer 1"><g class="cls-2"><path class="cls-3" d="M21.18,41.15V18.86a3.21,3.21,0,0,1,3.21-3.21H58.07a3.21,3.21,0,0,1,3.21,3.21V38.69l4.27,0V18.86a7.49,7.49,0,0,0-7.48-7.48H24.39a7.49,7.49,0,0,0-7.48,7.48v22.9C18.27,41.55,19.69,41.34,21.18,41.15Z"/><path class="cls-3" d="M75.18,38.66V18.86a3.21,3.21,0,0,1,3.2-3.21h33.68a3.21,3.21,0,0,1,3.21,3.21v22c1.48.17,2.91.35,4.27.54V18.86a7.48,7.48,0,0,0-7.48-7.48H78.38a7.49,7.49,0,0,0-7.48,7.48V38.64Z"/><path class="cls-3" d="M8.62,43.9V14.83A9.4,9.4,0,0,1,18,5.44h103.1a9.41,9.41,0,0,1,9.4,9.39V43.9A40.31,40.31,0,0,1,136,45.56V14.83A14.85,14.85,0,0,0,121.11,0H18A14.85,14.85,0,0,0,3.18,14.83V45.56A40.31,40.31,0,0,1,8.62,43.9Z"/><path class="cls-3" d="M139.13,67.1V56.37C139.13,43.65,0,43.65,0,56.37V67.11C0,57.53,139.09,57.53,139.13,67.1Z"/><path class="cls-3" d="M0,80.8v78.9c0,6.77,6.21,12.39,14.1,13.07.53,0,6.32.06,6.32.06h103c8.62,0,15.69-5.91,15.69-13.13V80.79C139.11,71.22,0,71.23,0,80.8Z"/></g></g></g></g></svg>