<svg xmlns="http://www.w3.org/2000/svg" viewBox="0 0 161.02 126.42"><defs><style>.cls-1{fill:#b3b3b3;}.cls-2{fill:#fff;}</style></defs><g id="Layer_2" data-name="Layer 2"><g id="Layer_1-2" data-name="Layer 1"><path class="cls-1" d="M126.42,63.21A63.21,63.21,0,1,1,63.21,0,63.21,63.21,0,0,1,126.42,63.21Z"/><circle class="cls-2" cx="63.21" cy="63.21" r="44.41" transform="translate(-2.57 2.68) rotate(-2.38)"/><circle class="cls-1" cx="63.21" cy="63.21" r="31.35" transform="translate(-4.81 121.21) rotate(-85.45)"/><path class="cls-2" d="M78.16,63.21a15,15,0,1,1-14.95-15A14.95,14.95,0,0,1,78.16,63.21Z"/><path class="cls-1" d="M160.21,26.48,152.1,20.9a4.37,4.37,0,0,0-1.93-4.76l1-10.06c.13-1.38-.79-2-2-1.46l-21.19,9.66a5.54,5.54,0,0,0-2.77,3.52l-2.05,10.55L65.68,59.72c-2.18,1.1-4.31,1.27-3.2,3.45s2.5.56,4.67-.55l58.49-27.47,8.08,4.79a5.13,5.13,0,0,0,4.41.15L160,29A1.37,1.37,0,0,0,160.21,26.48Z"/></g></g></svg>