<svg xmlns="http://www.w3.org/2000/svg" viewBox="0 0 156.82 133.41"><defs><style>.cls-1{fill:#009245;}</style></defs><g id="Layer_2" data-name="Layer 2"><g id="Layer_1-2" data-name="Layer 1"><path class="cls-1" d="M99.87,40.06a36.74,36.74,0,1,0,36.74,36.73A36.78,36.78,0,0,0,99.87,40.06Zm0,56.32a19.59,19.59,0,1,1,19.59-19.59A19.61,19.61,0,0,1,99.87,96.38Z"/><path class="cls-1" d="M45.19,61.05H25.53a7,7,0,0,1-7-6.95V42.24a7,7,0,0,1,7-7H45.19a7,7,0,0,1,7,7V54.1A7,7,0,0,1,45.19,61.05ZM25.53,42.17,25.46,54.1l19.73.06.06-11.92-.06-.07Z"/><path class="cls-1" d="M151.07,133.41H5.74A5.74,5.74,0,0,1,0,127.67V26a5.74,5.74,0,0,1,5.74-5.74H151.07A5.74,5.74,0,0,1,156.82,26V127.67A5.74,5.74,0,0,1,151.07,133.41ZM11.49,121.92H145.33V31.74H11.49Z"/><path class="cls-1" d="M108.85,31.31H69.65a5.76,5.76,0,0,1-5.75-5.75V5.74A5.75,5.75,0,0,1,69.65,0h39.2a5.75,5.75,0,0,1,5.75,5.74V25.56A5.76,5.76,0,0,1,108.85,31.31ZM75.39,19.82h27.72V11.49H75.39Z"/><rect class="cls-1" x="19.96" y="11.2" width="27.86" height="20.1" rx="5.74"/></g></g></svg>