<svg xmlns="http://www.w3.org/2000/svg" viewBox="0 0 182.5 91.34"><defs><style>.cls-1{fill:#b3b3b3;}</style></defs><g id="Layer_2" data-name="Layer 2"><g id="Layer_1-2" data-name="Layer 1"><path class="cls-1" d="M144.59,33.58h-3.26C138.69,27.84,130.75,12.1,121.05,7A64.89,64.89,0,0,0,90.76,0C78.87.27,63.16,3.67,56.14,9.66c-5.53,4.71-12.69,17.63-15,23.92H37.91c-.27.43-24.52,5-31.64,12.29-7.56,7.68-8.59,28.3-1.39,28.3H27.71c0,.46-.07.93-.07,1.4a15.77,15.77,0,1,0,31.53,0c0-.47,0-.94-.06-1.4h65.27c0,.46-.07.93-.07,1.4a15.77,15.77,0,1,0,31.54,0c0-.47,0-.94-.07-1.4h21.84c7.2,0,6.17-20.62-1.39-28.3C169.11,38.61,144.86,34,144.59,33.58Zm-60.4,0H55.65c2.58-5,6.66-11.73,9.11-13.82,2.67-2.28,10.6-4.87,19.43-6Zm21.22,0h-8v-20a50.36,50.36,0,0,1,17.41,5.2c3.47,1.82,8.07,8.43,11.59,14.82Z"/></g></g></svg>