<svg xmlns="http://www.w3.org/2000/svg" viewBox="0 0 190.92 190.92"><defs><style>.cls-1{fill:#999;}.cls-2{opacity:0.13;}.cls-3{fill:#fff;fill-rule:evenodd;}</style></defs><g id="Layer_2" data-name="Layer 2"><g id="Layer_1-2" data-name="Layer 1"><circle class="cls-1" cx="95.46" cy="95.46" r="95.46"/><path class="cls-2" d="M151.79,18.28C15.15,12.42,10.66,138.1,10.63,139A95.48,95.48,0,0,1,151.79,18.28Z"/><path class="cls-3" d="M135.74,112.82c-4.21-2.52-9.69-5.33-14.66-3.3-3.8,1.56-6.23,7.52-8.7,10.56-1.26,1.56-2.78,1.8-4.72,1A66.35,66.35,0,0,1,74.54,92.73c-1.34-2-1.1-3.66.51-5.55,2.38-2.8,5.37-6,6-9.77s-1.13-8.2-2.69-11.56c-2-4.3-4.23-10.44-8.54-12.87-4-2.24-9.18-1-12.7,1.89-6.09,5-9,12.73-8.94,20.43a28.74,28.74,0,0,0,.8,6.48,53.85,53.85,0,0,0,6.22,14.34A113.4,113.4,0,0,0,61.71,106a100.34,100.34,0,0,0,28.17,26.15,85.14,85.14,0,0,0,17.56,8.35c6.88,2.27,13,4.64,20.44,3.23,7.78-1.48,15.45-6.29,18.54-13.79a12,12,0,0,0,.86-7C146.22,118.05,139.66,115.17,135.74,112.82Z"/></g></g></svg>