<svg xmlns="http://www.w3.org/2000/svg" viewBox="0 0 131.13 133.87"><defs><style>.cls-1{fill:#b3b3b3;}</style></defs><g id="Layer_2" data-name="Layer 2"><g id="Layer_1-2" data-name="Layer 1"><path class="cls-1" d="M129.11,97.47H116.6a2,2,0,0,0-2,2v17.78h-98V99.5a2,2,0,0,0-2-2H2a2,2,0,0,0-2,2v32.34a2,2,0,0,0,2,2H129.11a2,2,0,0,0,2-2V99.5A2,2,0,0,0,129.11,97.47Z"/><path class="cls-1" d="M45.95,0H85.19a2.37,2.37,0,0,1,2.37,2.37V13a2.36,2.36,0,0,1-2.36,2.36H45.95A2.37,2.37,0,0,1,43.58,13V2.37A2.37,2.37,0,0,1,45.95,0Z"/><path class="cls-1" d="M38.77,74.68l22.72,26.63c1.81,2.13,6.34,2.13,8.15,0L92.37,74.68,115.09,48c1.81-2.12-.45-4.78-4.07-4.78H87.19v-22a2,2,0,0,0-2-2H45.28a2,2,0,0,0-2,2v22H20.12c-3.63,0-5.89,2.66-4.08,4.78Z"/></g></g></svg>