<svg xmlns="http://www.w3.org/2000/svg" viewBox="0 0 106.39 97.06"><defs><style>.cls-1{fill:#b3b3b3;}</style></defs><g id="Layer_2" data-name="Layer 2"><g id="Layer_1-2" data-name="Layer 1"><path class="cls-1" d="M0,48.55c.86-1,1.65-2.11,2.59-3q10-9.6,20-19.13c5.11-4.88,10.23-9.73,15.34-14.6,3.4-3.23,6.76-6.5,10.18-9.71a7.25,7.25,0,0,1,10.25,0C63.51,7,68.64,12,73.78,16.92c.11.1.22.17.48.37,0-.47.07-.8.07-1.13q0-6.37,0-12.75C74.34,1,75,.25,77.07.25q5.73,0,11.46,0c2,0,2.66.8,2.66,3.05q0,14.57,0,29.12a2.26,2.26,0,0,0,.74,1.82Q98.46,40.42,105,46.66a12.91,12.91,0,0,1,1.41,1.89v1.36c-1.38,2-2.76,3.92-4.16,5.86-1.21,1.68-2.29,1.82-3.78.41-4-3.75-7.9-7.56-11.85-11.34l-10.44-10L65.4,24.61c-3.86-3.7-7.73-7.39-11.58-11.11-.46-.43-.78-.44-1.23,0Q47.3,18.62,42,23.68L31.42,33.77,20.79,43.92,8.93,55.25c-.46.43-.9.89-1.38,1.28a1.87,1.87,0,0,1-3-.34C3,54.13,1.5,52,0,49.91Z"/><path class="cls-1" d="M61.64,97V68.06c-.37,0-.65,0-.93,0-5,0-10,0-15,0-.74,0-1,.23-1,1.09,0,8.87,0,17.73,0,26.6v1.37h-1q-11.89,0-23.79,0c-3.06,0-4.75-1.9-4.75-5.41,0-11.66,0-23.32,0-35a2.4,2.4,0,0,1,.87-2q8.79-8.26,17.54-16.58L49.06,23.56c1.37-1.29,2.73-2.6,4.13-3.94l6.13,5.78L77.07,42.17q6.81,6.42,13.6,12.88a2,2,0,0,1,.5,1.24q0,17.92,0,35.85C91.17,95,89.44,97,87,97c-8.27,0-16.54,0-24.81,0A3.54,3.54,0,0,1,61.64,97Z"/></g></g></svg>