<svg xmlns="http://www.w3.org/2000/svg" viewBox="0 0 113.49 113.82"><defs><style>.cls-1{fill:#b3b3b3;}</style></defs><g id="Layer_2" data-name="Layer 2"><g id="Layer_1-2" data-name="Layer 1"><path class="cls-1" d="M48.09,51.15a19,19,0,0,0,6.62,10.52c6.26,5.42,15.43,5.68,21.52.06s12.26-11.74,18-18c6-6.51,5.07-16.46-1.71-23.12-6.56-6.45-16.4-7-23-1C66,22.9,62.72,26.46,59.23,29.79a3.28,3.28,0,0,1-2.43,1,37,37,0,0,0-19.51.57,42.64,42.64,0,0,1,3-3.95C46.65,21,52.77,14.29,59.47,8.28,68.85-.12,80-2.18,91.65,2.34S110.82,15.55,113,28.11c1.86,10.78-1.52,20.11-9.15,27.85-5.7,5.79-11.34,11.67-17.36,17.11a31.51,31.51,0,0,1-42.25-.22,36.1,36.1,0,0,1-9-11.88,2.7,2.7,0,0,1,.62-3.51C39.18,54,42.63,51.06,48.09,51.15Z"/><path class="cls-1" d="M65.52,62.64c-2.18-7-6.33-11.91-13.34-14A15,15,0,0,0,37,52.24C31,57.83,25.2,63.66,19.58,69.65,13.32,76.33,14,86.2,20.76,93s16.64,7.22,23.36,1c3.47-3.21,6.7-6.69,10.12-9.95a3.23,3.23,0,0,1,2.43-1,36.93,36.93,0,0,0,19.49-.55,39.81,39.81,0,0,1-2.87,3.78C67,92.71,60.85,99.37,54.16,105.4c-9.42,8.49-20.58,10.65-32.38,6.06S2.53,98.1.45,85.4c-1.73-10.59,1.6-19.74,9-27.38C14.63,52.7,19.9,47.48,25.19,42.29c16.61-16.32,42.68-11,53,10.58a2.63,2.63,0,0,1-.63,3.49C74.28,59.76,70.86,62.8,65.52,62.64Z"/></g></g></svg>