<svg xmlns="http://www.w3.org/2000/svg" viewBox="0 0 233.1 233.1"><defs><style>.cls-1{fill:#999;}.cls-2{opacity:0.13;}.cls-3{fill:#fff;}</style></defs><g id="Layer_2" data-name="Layer 2"><g id="Layer_1-2" data-name="Layer 1"><circle class="cls-1" cx="116.55" cy="116.55" r="116.55"/><path class="cls-2" d="M185.33,22.32C18.5,15.16,13,168.61,13,169.72A116.57,116.57,0,0,1,185.33,22.32Z"/><path class="cls-3" d="M73.1,182.37a3,3,0,0,1-2.39-4.84l47.53-61.84a3.12,3.12,0,0,1,1-.85l42.31-21.48a3,3,0,0,1,3.74,4.51l-52.73,68.36a3,3,0,0,1-1.25,1l-37.11,15A2.9,2.9,0,0,1,73.1,182.37Zm49.49-62.48L82.2,172.45l26.12-10.54,44.1-57.16Z"/><path class="cls-3" d="M72.45,181.72a3,3,0,0,1-1.13-.22L31,165.23a3,3,0,0,1-1.77-2,3,3,0,0,1,.52-2.62L82.44,92.25a3,3,0,0,1,4-.68L122.27,115a3,3,0,0,1,.71,4.37L74.81,180.57A3,3,0,0,1,72.45,181.72ZM36.89,161.14l34.59,13.94,44.75-56.84L85.5,98.13Z"/><path class="cls-3" d="M149.91,184.32a3.17,3.17,0,0,1-1.12-.21l-40.36-16.28a3,3,0,0,1-1.26-4.62L159.9,94.86a3,3,0,0,1,4-.69l35.8,23.44a3,3,0,0,1,.72,4.37l-48.17,61.2A3,3,0,0,1,149.91,184.32Zm-35.55-20.58L149,177.69l44.75-56.84L163,100.73Z"/><path class="cls-3" d="M89.68,153.77a37.87,37.87,0,0,1-6.42-.83l.63-2.93a35,35,0,0,0,5.91.75Zm6.46-.31-.4-3a34.54,34.54,0,0,0,5.81-1.3l.9,2.87A38.31,38.31,0,0,1,96.14,153.46ZM77.08,151a41.36,41.36,0,0,1-5.78-2.86l1.54-2.59a37.1,37.1,0,0,0,5.36,2.66Zm31.36-1.42-1.35-2.68a41.83,41.83,0,0,0,5.14-3.08l1.73,2.46A43.49,43.49,0,0,1,108.44,149.62ZM66,144.49c-.58-.47-1.16-.94-1.74-1.43-1-.84-2-1.68-3-2.44L63,138.2c1.08.8,2.13,1.68,3.19,2.55.56.47,1.12.94,1.69,1.4Zm52.9-2.2-2-2.22c1.49-1.36,2.94-2.82,4.39-4.29l2.15,2.1C122,139.39,120.47,140.89,118.94,142.29Zm8.86-8.8-2.09-2.15a55.22,55.22,0,0,1,4.78-4.23l1.85,2.37A56,56,0,0,0,127.8,133.49Zm9.51-7.11-1.25-2.73a23.52,23.52,0,0,1,6.34-1.91l.45,3A20.8,20.8,0,0,0,137.31,126.38Zm16.85,0a21,21,0,0,0-5.56-1.62l.44-3a24.28,24.28,0,0,1,6.35,1.86Z"/><path class="cls-3" d="M161.37,131.26a26.75,26.75,0,0,0-2.16-1.87l1.86-2.37c.81.64,1.61,1.33,2.39,2.08Z"/><path class="cls-3" d="M138.19,73.8a1.62,1.62,0,0,0,0-.19,27.08,27.08,0,1,1,52.57,0,1.29,1.29,0,0,0,0,.19c-.77,4.71-20.76,41.71-26.24,50.65C159,115.51,139,78.51,138.19,73.8Z"/><ellipse class="cls-3" cx="164.79" cy="128.26" rx="13.37" ry="5.67"/><path class="cls-1" d="M164.44,49a17.19,17.19,0,1,0,17.18,17.19A17.21,17.21,0,0,0,164.44,49Z"/></g></g></svg>