<svg xmlns="http://www.w3.org/2000/svg" viewBox="0 0 173.42 96.76"><defs><style>.cls-1{fill:#00964c;}</style></defs><g id="Layer_2" data-name="Layer 2"><g id="Layer_1-2" data-name="Layer 1"><path class="cls-1" d="M55.85,96.76v-50q0-8.61-4.67-12.92t-12.7-4.31a23.12,23.12,0,0,0-6,.79,25.55,25.55,0,0,0-5.46,2.15,21.87,21.87,0,0,0-4.45,3.17,14.29,14.29,0,0,0-2.94,3.65l12.06,10.2A13.51,13.51,0,0,0,25,54.33c-1.53,2.16-2.3,5.05-2.3,8.69V96.76H4V63.16A15.57,15.57,0,0,1,6.18,55a16.08,16.08,0,0,1,5.45-5.6L0,39.91a28.3,28.3,0,0,1,5-9.4,38.83,38.83,0,0,1,8.54-8,44.09,44.09,0,0,1,25.41-7.83A44.9,44.9,0,0,1,54.12,17a31.69,31.69,0,0,1,11.13,6.61,27.92,27.92,0,0,1,6.89,10.19,34.82,34.82,0,0,1,2.37,13v50Z"/><path class="cls-1" d="M146.57,75.08h-35l-7.32,21.68H84.7L119.58,0h19l34.89,96.76H153.89ZM117,59.57h24.12l-4.74-14.5L129.2,20.38h-.29l-7.18,24.69Z"/></g></g></svg>