<svg xmlns="http://www.w3.org/2000/svg" viewBox="0 0 118.77 143.18"><defs><style>.cls-1{fill:#b3b3b3;}</style></defs><g id="Layer_2" data-name="Layer 2"><g id="Layer_1-2" data-name="Layer 1"><path class="cls-1" d="M35.17.48C39,2.06,40.52,5.39,41.28,9.12,42.79,16.57,44.21,24,45.61,31.5A17.36,17.36,0,0,1,45.85,35a6.9,6.9,0,0,1-5.14,7c-2.37.79-4.75,1.53-7.15,2.19a5.82,5.82,0,0,0-4.24,4.42,15.44,15.44,0,0,0,.14,8.88c5.3,16.88,14.85,31,27.9,42.78a62,62,0,0,0,8.71,6.35,10.77,10.77,0,0,0,6.6,1.34,5.23,5.23,0,0,0,4-2.22c1.36-1.88,2.76-3.73,4.13-5.6,2.77-3.8,5.91-4.73,10.23-2.76,2.33,1.06,4.53,2.43,6.76,3.71q6.3,3.64,12.57,7.34c1.07.64,2.12,1.31,3.13,2,2.8,2,5,4.3,5.24,8l-.48,2.8c-1,2.12-1.82,4.33-3,6.34C110.06,136.49,102.36,141.81,92,143c-2.07.24-4.18.1-6.27.14l-4.83-.83c-1.91-.64-3.85-1.21-5.72-1.94C65.78,136.75,57.9,130.77,50.6,124A180.64,180.64,0,0,1,27.37,96.89C18.85,85,11.17,72.65,5.73,59,2.7,51.45.47,43.66.06,35.46c-.13-2.39,0-4.79,0-7.19.28-1.61.55-3.22.83-4.83.14-.36.32-.7.43-1.06C4.79,10.62,12.74,3.64,24.5.86A62.1,62.1,0,0,1,32.37,0Z"/></g></g></svg>